<?xml version="1.0" encoding="utf-8"?>
<svg id="master-artboard" viewBox="0 0 221.2857208251953 204.1428680419922" xmlns="http://www.w3.org/2000/svg" width="25px" height="25px" xmlns:xlink="http://www.w3.org/1999/xlink"><rect id="ee-background" x="0" y="0" width="221.2857208251953" height="204.1428680419922" style="fill: white; fill-opacity: 0; pointer-events: none;"/><defs><radialGradient id="radial-gradient" cx="2061.27" cy="-1311.32" r="66.19" gradientTransform="translate(-46.39 757.8) scale(0.36 0.13)" gradientUnits="userSpaceOnUse"><stop offset="0" stop-color="#b1b1b1"/><stop offset="0.2" stop-color="#d3d3d3"/><stop offset="0.4" stop-color="#ebebeb"/><stop offset="0.58" stop-color="#fafafa"/><stop offset="0.73" stop-color="#fff"/></radialGradient><radialGradient id="radial-gradient-2" cx="1300.03" cy="-1311.32" r="66.19" xlink:href="#radial-gradient"/><radialGradient id="radial-gradient-3" cx="538.78" cy="-1311.32" r="66.19" xlink:href="#radial-gradient"/><radialGradient id="radial-gradient-4" cx="2061.28" cy="-3620.54" r="66.19" xlink:href="#radial-gradient"/><radialGradient id="radial-gradient-5" cx="1300.03" cy="-3620.54" r="66.19" xlink:href="#radial-gradient"/><radialGradient id="radial-gradient-6" cx="538.78" cy="-3620.54" r="66.19" xlink:href="#radial-gradient"/><radialGradient id="gradient-1" cx="2061.27" cy="-1311.32" r="66.19" gradientTransform="translate(-46.39 757.8) scale(0.36 0.13)" gradientUnits="userSpaceOnUse"><stop offset="0" stop-color="#b1b1b1"/><stop offset="0.2" stop-color="#d3d3d3"/><stop offset="0.4" stop-color="#ebebeb"/><stop offset="0.58" stop-color="#fafafa"/><stop offset="0.73" stop-color="#fff"/></radialGradient><radialGradient id="gradient-2" cx="1300.03" cy="-1311.32" r="66.19" xlink:href="#gradient-1"/><radialGradient id="gradient-3" cx="538.78" cy="-1311.32" r="66.19" xlink:href="#gradient-1"/><radialGradient id="gradient-4" cx="2061.28" cy="-3620.54" r="66.19" xlink:href="#gradient-1"/><radialGradient id="gradient-5" cx="1300.03" cy="-3620.54" r="66.19" xlink:href="#gradient-1"/><radialGradient id="gradient-6" cx="538.78" cy="-3620.54" r="66.19" xlink:href="#gradient-1"/><radialGradient id="gradient-7" cx="2061.27" cy="-1311.32" r="66.19" gradientTransform="translate(-46.39 757.8) scale(0.36 0.13)" gradientUnits="userSpaceOnUse"><stop offset="0" stop-color="#b1b1b1"/><stop offset="0.2" stop-color="#d3d3d3"/><stop offset="0.4" stop-color="#ebebeb"/><stop offset="0.58" stop-color="#fafafa"/><stop offset="0.73" stop-color="#fff"/></radialGradient><radialGradient id="gradient-8" cx="1300.03" cy="-1311.32" r="66.19" xlink:href="#gradient-7"/><radialGradient id="gradient-9" cx="538.78" cy="-1311.32" r="66.19" xlink:href="#gradient-7"/><radialGradient id="gradient-10" cx="2061.28" cy="-3620.54" r="66.19" xlink:href="#gradient-7"/><radialGradient id="gradient-11" cx="1300.03" cy="-3620.54" r="66.19" xlink:href="#gradient-7"/><radialGradient id="gradient-12" cx="538.78" cy="-3620.54" r="66.19" xlink:href="#gradient-7"/></defs><title>location-pointer-symbol-vectors</title><path d="M 436.0000305175781 389.71429443359375" style="fill-opacity: 1; stroke: rgb(0, 0, 0); stroke-opacity: 1; stroke-width: 10; paint-order: fill;" transform="matrix(1, 0, 0, 1, -356.5714111328125, -212.5713939666748)"/><g transform="matrix(0.4742462933063507, 0, 0, 0.4742462933063507, 4.28572416305542, 58.93986701965332)"><rect id="rect-2" x="0" y="0" width="454.8571472167969" height="428" style="fill: white; fill-opacity: 0; pointer-events: none;"/><title>location-pointer-symbol-vectors</title><path d="M 436.0000305175781 389.71429443359375" style="fill-opacity: 1; stroke: rgb(0, 0, 0); stroke-opacity: 1; stroke-width: 10; paint-order: fill;" transform="matrix(1, 0, 0, 1, -360.8571207523346, -203.1428165435791)"/><g transform="matrix(5.764890670776367, 0, 0, 5.764890670776367, 4.577876317919618, -129.88059359501335)"><g>
	<path d="M2.386,21.467h2.386v14.312H2.386C1.067,35.779,0,34.717,0,33.394v-9.542C0,22.54,1.067,21.467,2.386,21.467z&#10;&#9;&#9; M73.948,21.467h-2.388v14.312h2.388c1.317,0,2.386-1.062,2.386-2.385v-9.542C76.334,22.54,75.268,21.467,73.948,21.467z&#10;&#9;&#9; M66.792,16.698v42.937c0,2.638-2.133,4.771-4.771,4.771v4.771c0,2.639-2.133,4.771-4.771,4.771h-4.772&#10;&#9;&#9;c-2.637,0-4.771-2.137-4.771-4.771v-4.771H28.626v4.771c0,2.639-2.134,4.771-4.771,4.771h-4.769c-2.638,0-4.771-2.137-4.771-4.771&#10;&#9;&#9;v-4.771c-2.637,0-4.771-2.137-4.771-4.771V16.698C9.542,8.796,15.954,2.386,23.855,2.386H52.48&#10;&#9;&#9;C60.382,2.386,66.792,8.794,66.792,16.698z M28.626,11.928h19.083V7.157H28.626V11.928z M23.855,54.866&#10;&#9;&#9;c0-2.641-2.134-4.771-4.769-4.771c-2.637,0-4.771,2.133-4.771,4.771c0,2.635,2.134,4.771,4.771,4.771&#10;&#9;&#9;C21.72,59.636,23.855,57.499,23.855,54.866z M62.021,54.866c0-2.641-2.133-4.771-4.771-4.771s-4.771,2.133-4.771,4.771&#10;&#9;&#9;c0,2.635,2.136,4.771,4.771,4.771C59.889,59.636,62.021,57.499,62.021,54.866z M62.021,16.698H14.313v28.625h47.708V16.698&#10;&#9;&#9;L62.021,16.698z" style="fill: rgb(191, 144, 0); stroke: rgb(0, 0, 0); fill-opacity: 1;"/>
</g><g>
</g><g>
</g><g>
</g><g>
</g><g>
</g><g>
</g><g>
</g><g>
</g><g>
</g><g>
</g><g>
</g><g>
</g><g>
</g><g>
</g><g>
</g></g></g></svg>