<?xml version="1.0" encoding="utf-8"?>
<svg id="master-artboard" viewBox="0 0 215.71429443359375 339.71429443359375" xmlns="http://www.w3.org/2000/svg" width="25px" height="25px" xmlns:xlink="http://www.w3.org/1999/xlink"><rect id="ee-background" x="0" y="0" width="215.71429443359375" height="339.71429443359375" style="fill: white; fill-opacity: 0; pointer-events: none;"/><defs><radialGradient id="radial-gradient" cx="2061.27" cy="-1311.32" r="66.19" gradientTransform="translate(-46.39 757.8) scale(0.36 0.13)" gradientUnits="userSpaceOnUse"><stop offset="0" stop-color="#b1b1b1"/><stop offset="0.2" stop-color="#d3d3d3"/><stop offset="0.4" stop-color="#ebebeb"/><stop offset="0.58" stop-color="#fafafa"/><stop offset="0.73" stop-color="#fff"/></radialGradient><radialGradient id="radial-gradient-2" cx="1300.03" cy="-1311.32" r="66.19" xlink:href="#radial-gradient"/><radialGradient id="radial-gradient-3" cx="538.78" cy="-1311.32" r="66.19" xlink:href="#radial-gradient"/><radialGradient id="radial-gradient-4" cx="2061.28" cy="-3620.54" r="66.19" xlink:href="#radial-gradient"/><radialGradient id="radial-gradient-5" cx="1300.03" cy="-3620.54" r="66.19" xlink:href="#radial-gradient"/><radialGradient id="radial-gradient-6" cx="538.78" cy="-3620.54" r="66.19" xlink:href="#radial-gradient"/></defs><title>location-pointer-symbol-vectors</title><path d="M 436.0000305175781 389.71429443359375" style="fill-opacity: 1; stroke: rgb(0, 0, 0); stroke-opacity: 1; stroke-width: 10; paint-order: fill;" transform="matrix(1, 0, 0, 1, -360.8571207523346, -203.1428165435791)"/><g transform="matrix(0.6450892090797423, 0, 0, 0.6450892090797423, -56.3414909499034, 4.2857111619438655)"><g>
	<g>
		<path d="M239.069,408.93C237.21,407.069,234.63,406,232,406s-5.21,1.069-7.07,2.93c-1.86,1.861-2.93,4.44-2.93,7.07&#10;&#9;&#9;&#9;s1.069,5.21,2.93,7.069c1.86,1.86,4.44,2.931,7.07,2.931s5.21-1.07,7.069-2.931C240.93,421.21,242,418.63,242,416&#10;&#9;&#9;&#9;S240.93,410.79,239.069,408.93z" style="fill: rgb(19, 181, 199); stroke: rgb(19, 67, 52); stroke-width: 1; fill-opacity: 1;"/>
	</g>
</g><g>
	<g>
		<path d="M232,445c-5.522,0-10,4.478-10,10v47c0,5.522,4.478,10,10,10c5.522,0,10-4.478,10-10v-47C242,449.478,237.522,445,232,445&#10;&#9;&#9;&#9;z" style="fill: rgb(19, 181, 199); stroke: rgb(19, 67, 52); stroke-width: 1; fill-opacity: 1;"/>
	</g>
</g><g>
	<g>
		<path d="M396,153.726c5.522,0,10-4.478,10-10V58c0-31.981-26.019-58-58-58H164c-31.981,0-58,26.019-58,58v244&#10;&#9;&#9;&#9;c0,31.981,26.019,58,58,58h58v17c0,5.522,4.478,10,10,10c5.522,0,10-4.478,10-10v-17h28v142c0,5.522,4.478,10,10,10&#10;&#9;&#9;&#9;c5.522,0,10-4.478,10-10V360h58c31.981,0,58-26.019,58-58v-84c0-5.522-4.478-10-10-10c-5.522,0-10,4.478-10,10v84&#10;&#9;&#9;&#9;c0,20.953-17.047,38-38,38H164c-20.953,0-38-17.047-38-38V58c0-20.953,17.047-38,38-38h184c20.953,0,38,17.047,38,38v85.726&#10;&#9;&#9;&#9;C386,149.248,390.478,153.726,396,153.726z" style="fill: rgb(19, 181, 199); stroke: rgb(19, 67, 52); stroke-width: 1; fill-opacity: 1;"/>
	</g>
</g><g>
	<g>
		<path d="M403.069,176c-1.859-1.86-4.439-2.931-7.069-2.931s-5.21,1.07-7.07,2.931c-1.86,1.859-2.93,4.439-2.93,7.069&#10;&#9;&#9;&#9;c0,2.631,1.069,5.211,2.93,7.07c1.86,1.86,4.44,2.93,7.07,2.93c2.64,0,5.21-1.069,7.069-2.93c1.86-1.859,2.931-4.439,2.931-7.07&#10;&#9;&#9;&#9;C406,180.439,404.93,177.859,403.069,176z" style="fill: rgb(19, 181, 199); stroke: rgb(19, 67, 52); stroke-width: 1; fill-opacity: 1;"/>
	</g>
</g><g>
	<g>
		<path d="M329.288,54H182.712C166.88,54,154,66.88,154,82.712v81.014c0,5.522,4.478,10,10,10h11.387&#10;&#9;&#9;&#9;c4.128,11.639,15.244,20,28.28,20s24.152-8.361,28.28-20h47.773c4.128,11.639,15.244,20,28.28,20s24.152-8.361,28.28-20H348&#10;&#9;&#9;&#9;c5.522,0,10-4.478,10-10V82.712C358,66.88,345.12,54,329.288,54z M237.75,74h36.5v29.862h-36.5V74z M174,82.712&#10;&#9;&#9;&#9;c0-4.804,3.908-8.712,8.712-8.712h35.038v29.862H174V82.712z M213.6,164.847c-0.56,4.987-4.799,8.879-9.933,8.879&#10;&#9;&#9;&#9;c-5.514,0-10-4.486-10-10c0-5.514,4.486-10,10-10c5.134,0,9.373,3.892,9.933,8.879c-0.042,0.368-0.067,0.742-0.067,1.121&#10;&#9;&#9;&#9;C213.533,164.105,213.558,164.479,213.6,164.847z M308,173.726c-5.514,0-10-4.487-10-10c0-5.514,4.486-10,10-10&#10;&#9;&#9;&#9;c5.514,0,10,4.486,10,10C318,169.24,313.514,173.726,308,173.726z M338,153.726h-1.72c-4.128-11.639-15.244-20-28.28-20&#10;&#9;&#9;&#9;s-24.152,8.361-28.28,20h-47.773c-4.128-11.639-15.244-20-28.28-20c-13.036,0-24.152,8.361-28.28,20H174v-29.863h164V153.726z&#10;&#9;&#9;&#9; M338,103.862h-43.75V74h35.038c4.804,0,8.712,3.908,8.712,8.712V103.862z" style="fill: rgb(19, 181, 199); stroke: rgb(19, 67, 52); stroke-width: 1; fill-opacity: 1;"/>
	</g>
</g><g>
	<g>
		<path d="M216.353,247.921c0-15.44-12.561-28-28-28H164c-5.522,0-10,4.478-10,10v36v36c0,5.522,4.478,10,10,10h24.353&#10;&#9;&#9;&#9;c15.439,0,28-12.561,28-28c0-6.849-2.476-13.129-6.575-18C213.877,261.05,216.353,254.77,216.353,247.921z M188.353,291.921H174&#10;&#9;&#9;&#9;v-16h14.353c4.411,0,8,3.589,8,8S192.764,291.921,188.353,291.921z M188.353,255.921H174v-16h14.353c4.411,0,8,3.589,8,8&#10;&#9;&#9;&#9;C196.353,252.332,192.764,255.921,188.353,255.921z" style="fill: rgb(19, 181, 199); stroke: rgb(19, 67, 52); stroke-width: 1; fill-opacity: 1;"/>
	</g>
</g><g>
	<g>
		<path d="M277.1,219.921c-5.522,0-10,4.478-10,10v52c0,5.514-4.486,10-10,10c-5.514,0-10-4.486-10-10v-52c0-5.523-4.478-10-10-10&#10;&#9;&#9;&#9;c-5.522,0-10,4.478-10,10v52c0,16.542,13.458,30,30,30s30-13.458,30-30v-52C287.1,224.399,282.622,219.921,277.1,219.921z" style="fill: rgb(19, 181, 199); stroke: rgb(19, 67, 52); stroke-width: 1; fill-opacity: 1;"/>
	</g>
</g><g>
	<g>
		<path d="M331.177,255.921h-6.354c-4.411,0-8-3.589-8-8c0-4.411,3.589-8,8-8h12.653c5.522,0,10-4.478,10-10c0-5.522-4.478-10-10-10&#10;&#9;&#9;&#9;h-12.653c-15.439,0-28,12.561-28,28c0,15.439,12.561,28,28,28h6.354c4.411,0,8,3.589,8,8s-3.589,8-8,8h-16.65&#10;&#9;&#9;&#9;c-5.522,0-10,4.478-10,10c0,5.522,4.478,10,10,10h16.65c15.439,0,28-12.561,28-28&#10;&#9;&#9;&#9;C359.177,268.482,346.616,255.921,331.177,255.921z" style="fill: rgb(19, 181, 199); stroke: rgb(19, 67, 52); stroke-width: 1; fill-opacity: 1;"/>
	</g>
</g><g>
</g><g>
</g><g>
</g><g>
</g><g>
</g><g>
</g><g>
</g><g>
</g><g>
</g><g>
</g><g>
</g><g>
</g><g>
</g><g>
</g><g>
</g></g></svg>