<svg width="20" height="21" viewBox="0 0 20 21" fill="none" xmlns="http://www.w3.org/2000/svg">
    <path d="M2.27521 19.3668L19.2725 2.36956C19.6554 1.9866 19.6196 1.32912 19.1924 0.901979C18.7653 0.474833 18.1078 0.43897 17.7248 0.821929L0.727579 17.8192C0.34462 18.2021 0.380483 18.8596 0.807629 19.2868C1.23478 19.7139 1.89225 19.7498 2.27521 19.3668Z" fill="#181818"/>
    <path d="M0.693742 2.2414L17.691 19.2386C18.0739 19.6216 18.7314 19.5857 19.1586 19.1586C19.5857 18.7314 19.6216 18.074 19.2386 17.691L2.24137 0.693765C1.85841 0.310807 1.20094 0.346669 0.773792 0.773815C0.346646 1.20096 0.310783 1.85844 0.693742 2.2414Z" fill="#181818"/>
</svg>
