<?xml version="1.0" encoding="utf-8"?>
<svg id="master-artboard" viewBox="0 0 41.35392379760742 59.36663818359375" xmlns="http://www.w3.org/2000/svg" width="45px" height="45px" xmlns:xlink="http://www.w3.org/1999/xlink"><rect id="ee-background" x="0" y="0" width="41.35392379760742" height="59.36663818359375" style="fill: rgb(255, 255, 255); fill-opacity: 0; pointer-events: none;"/><defs><radialGradient id="radial-gradient" cx="2061.27" cy="-1311.32" r="66.19" gradientTransform="translate(-46.39 757.8) scale(0.36 0.13)" gradientUnits="userSpaceOnUse"><stop offset="0" stop-color="#b1b1b1"/><stop offset="0.2" stop-color="#d3d3d3"/><stop offset="0.4" stop-color="#ebebeb"/><stop offset="0.58" stop-color="#fafafa"/><stop offset="0.73" stop-color="#fff"/></radialGradient><radialGradient id="radial-gradient-2" cx="1300.03" cy="-1311.32" r="66.19" xlink:href="#radial-gradient"/><radialGradient id="radial-gradient-3" cx="538.78" cy="-1311.32" r="66.19" xlink:href="#radial-gradient"/><radialGradient id="radial-gradient-4" cx="2061.28" cy="-3620.54" r="66.19" xlink:href="#radial-gradient"/><radialGradient id="radial-gradient-5" cx="1300.03" cy="-3620.54" r="66.19" xlink:href="#radial-gradient"/><radialGradient id="radial-gradient-6" cx="538.78" cy="-3620.54" r="66.19" xlink:href="#radial-gradient"/><radialGradient id="gradient-0" gradientUnits="objectBoundingBox" cx="0.5" cy="0.5" r="0.5">
                <stop offset="0" style="stop-color: #ffffff"/>
                <stop offset="1" style="stop-color: #cccccc"/>
              </radialGradient><radialGradient id="gradient-1" gradientUnits="objectBoundingBox" cx="0.5" cy="0.5" r="0.5" gradientTransform="matrix(0.9822636418612447, -0.902879901809797, 1.0570353992280892, 0.6259537923483351, -0.5196492865251965, 0.6384630524137435)">
                <stop offset="0" style="stop-color: #ffffff"/>
                <stop offset="1" style="stop-color: #cccccc"/>
              </radialGradient><radialGradient id="gradient-2" gradientUnits="objectBoundingBox" cx="0.5" cy="0.5" r="0.5" gradientTransform="matrix(0.7765274047851562, 0.8243685960769653, -1.1130269765853882, 0.5706839263439178, 0.6682498455047607, -0.1975262612104416)">
                <stop offset="0" style="stop-color: #ffffff"/>
                <stop offset="1" style="stop-color: #cccccc"/>
              </radialGradient><radialGradient id="gradient-3" gradientUnits="objectBoundingBox" cx="0.5" cy="0.5" r="0.5">
                <stop offset="0" style="stop-color: #ffffff"/>
                <stop offset="1" style="stop-color: #cccccc"/>
              </radialGradient></defs><title>location-pointer-symbol-vectors</title><path id="color" d="M 514 129.21 C 513.9697962455231 60.69777471385751 439.78425943947104 17.910330429839206 380.4660337491075 52.192600291577136 C 321.147808058744 86.47487015331507 321.1855627518401 172.11515176099311 380.5339921966805 206.3451071853977 C 385.7582717858541 209.35827634816792 391.27529485056976 211.83262376387495 397 213.73000000000002 L 426.8218994140625 265.80269165039067 L 453 213.73000000000005 C 489.42993053908845 201.65579969395242 514.0169168792502 167.58871631428764 514 129.21 Z" fill="#e2007a" transform="matrix(0.22992174327373505, 0, 0, 0.22992174327373505, -77.03234761953354, -8.961443901062012)" style="fill: rgb(34, 196, 103);"/><path d="M 16.86687469482422 43 L 4.656875133514404 43 L 4.656875133514404 40.810001373291016 L 9.296875 36.13999938964844 C 10.670207977294922 34.733333587646484 11.580208778381348 33.73666763305664 12.026874542236328 33.150001525878906 C 12.480208396911621 32.563331604003906 12.806875228881836 32.01000213623047 13.006875038146973 31.489999771118164 C 13.213541984558105 30.970001220703125 13.316875457763672 30.416667938232422 13.316875457763672 29.829999923706055 C 13.316875457763672 29.016666412353516 13.073541641235352 28.373332977294922 12.586874961853027 27.899999618530273 C 12.100208282470703 27.433334350585938 11.423542022705078 27.200000762939453 10.556875228881836 27.200000762939453 C 9.870208740234375 27.200000762939453 9.20354175567627 27.32666778564453 8.556875228881836 27.579999923706055 C 7.910208225250244 27.84000015258789 7.163541793823242 28.299999237060547 6.316874980926514 28.959999084472656 L 4.756875038146973 27.049999237060547 C 5.756875038146973 26.203332901000977 6.730208396911621 25.60333251953125 7.676875114440918 25.25 C 8.623541831970215 24.89666748046875 9.630208969116211 24.719999313354492 10.696874618530273 24.719999313354492 C 12.370208740234375 24.719999313354492 13.713541984558105 25.15999984741211 14.726875305175781 26.040000915527344 C 15.733541488647461 26.913333892822266 16.236873626708984 28.09000015258789 16.236873626708984 29.56999969482422 C 16.236873626708984 30.383333206176758 16.093542098999023 31.15333366394043 15.806875228881836 31.880001068115234 C 15.513541221618652 32.61333465576172 15.063541412353516 33.369998931884766 14.45687484741211 34.150001525878906 C 13.8568754196167 34.92333221435547 12.853541374206543 35.970001220703125 11.446874618530273 37.290000915527344 L 8.316875457763672 40.33000183105469 L 8.316875457763672 40.45000076293945 L 16.86687469482422 40.45000076293945 L 16.86687469482422 43 ZM 25.85606575012207 31.75 C 27.66939926147461 31.75 29.106067657470703 32.22999954223633 30.166065216064453 33.189998626708984 C 31.22606658935547 34.150001525878906 31.756065368652344 35.459999084472656 31.756065368652344 37.119998931884766 C 31.756065368652344 39.04666519165039 31.15606689453125 40.54999923706055 29.956066131591797 41.630001068115234 C 28.749401092529297 42.709999084472656 27.039400100708008 43.25 24.826066970825195 43.25 C 22.812732696533203 43.25 21.229400634765625 42.92333221435547 20.076066970825195 42.27000045776367 L 20.076066970825195 39.650001525878906 C 20.742733001708984 40.029998779296875 21.506065368652344 40.31999969482422 22.366065979003906 40.52000045776367 C 23.23273277282715 40.72666549682617 24.03606605529785 40.83000183105469 24.776065826416016 40.83000183105469 C 26.082733154296875 40.83000183105469 27.076065063476562 40.540000915527344 27.756065368652344 39.959999084472656 C 28.436065673828125 39.37333297729492 28.776065826416016 38.516666412353516 28.776065826416016 37.38999938964844 C 28.776065826416016 35.23666763305664 27.40606689453125 34.15999984741211 24.666067123413086 34.15999984741211 C 24.279399871826172 34.15999984741211 23.802732467651367 34.20000076293945 23.236066818237305 34.279998779296875 C 22.66939926147461 34.36000061035156 22.172733306884766 34.45000076293945 21.74606704711914 34.54999923706055 L 20.44606590270996 33.779998779296875 L 21.136066436767578 24.979999542236328 L 30.506065368652344 24.979999542236328 L 30.506065368652344 27.560001373291016 L 23.686065673828125 27.560001373291016 L 23.28606605529785 32.02000045776367 C 23.57273292541504 31.97333335876465 23.922733306884766 31.916667938232422 24.33606719970703 31.850000381469727 C 24.749399185180664 31.78333282470703 25.256065368652344 31.75 25.85606575012207 31.75 ZM 37.16525650024414 30.380001068115234 C 37.16525650024414 31.606666564941406 37.28525924682617 32.52000045776367 37.5252571105957 33.119998931884766 C 37.75859069824219 33.720001220703125 38.148590087890625 34.02000045776367 38.69525909423828 34.02000045776367 C 39.7752571105957 34.02000045776367 40.31525802612305 32.80666732788086 40.31525802612305 30.380001068115234 C 40.31525802612305 27.959999084472656 39.7752571105957 26.75 38.69525909423828 26.75 C 38.148590087890625 26.75 37.75859069824219 27.049999237060547 37.5252571105957 27.649999618530273 C 37.28525924682617 28.25 37.16525650024414 29.15999984741211 37.16525650024414 30.380001068115234 M 42.705257415771484 30.360000610351562 C 42.705257415771484 32.246665954589844 42.36859130859375 33.663333892822266 41.69525909423828 34.61000061035156 C 41.0152587890625 35.563331604003906 40.0152587890625 36.040000915527344 38.69525909423828 36.040000915527344 C 37.441925048828125 36.040000915527344 36.471923828125 35.54666519165039 35.78525924682617 34.560001373291016 C 35.10525894165039 33.58000183105469 34.7652587890625 32.18000030517578 34.7652587890625 30.360000610351562 C 34.7652587890625 26.600000381469727 36.07525634765625 24.719999313354492 38.69525909423828 24.719999313354492 C 39.98192596435547 24.719999313354492 40.971923828125 25.209999084472656 41.66525650024414 26.190000534057617 C 42.35858917236328 27.163333892822266 42.705257415771484 28.553333282470703 42.705257415771484 30.360000610351562 M 48.89525604248047 37.58000183105469 C 48.89525604248047 38.79999923706055 49.0152587890625 39.71666717529297 49.25525665283203 40.33000183105469 C 49.501922607421875 40.936668395996094 49.89525604248047 41.2400016784668 50.43525695800781 41.2400016784668 C 51.50859069824219 41.2400016784668 52.045257568359375 40.02000045776367 52.045257568359375 37.58000183105469 C 52.045257568359375 35.17333221435547 51.50859069824219 33.970001220703125 50.43525695800781 33.970001220703125 C 49.89525604248047 33.970001220703125 49.501922607421875 34.26333236694336 49.25525665283203 34.849998474121094 C 49.0152587890625 35.44333267211914 48.89525604248047 36.35333251953125 48.89525604248047 37.58000183105469 M 54.43525695800781 37.58000183105469 C 54.43525695800781 39.46666717529297 54.09526062011719 40.88333511352539 53.415260314941406 41.83000183105469 C 52.735260009765625 42.776668548583984 51.74192428588867 43.25 50.43525695800781 43.25 C 49.18859100341797 43.25 48.218589782714844 42.76333236694336 47.5252571105957 41.790000915527344 C 46.838592529296875 40.81666564941406 46.49525833129883 39.413333892822266 46.49525833129883 37.58000183105469 C 46.49525833129883 33.82666778564453 47.808589935302734 31.950000762939453 50.43525695800781 31.950000762939453 C 51.701927185058594 31.950000762939453 52.68525695800781 32.43333435058594 53.385257720947266 33.400001525878906 C 54.08525848388672 34.366668701171875 54.43525695800781 35.76000213623047 54.43525695800781 37.58000183105469 M 50.785255432128906 24.979999542236328 L 40.78525924682617 43 L 38.39525604248047 43 L 48.385257720947266 24.979999542236328 L 50.785255432128906 24.979999542236328 Z" transform="matrix(0.6438634395599365, 0, 0, 0.9509658217430115, 2.2684099674224854, -11.309964179992676)" style="fill: rgb(255, 255, 255); white-space: pre; color: rgb(255, 255, 255); fill-opacity: 1; stroke: rgb(0, 0, 0); stroke-opacity: 0; stroke-width: 40;"/><g transform="matrix(-0.05000000819563866, 0, 0, -0.049999989569187164, 53.368507385253906, 61.079174063214424)"><g id="g-3" transform="matrix(1, 0, 0, 1, 0, 0)">
	<g id="g-4">
		<path class="st0" d="M652,46c27.6,0,50,22.4,50,50s-22.4,50-50,50s-50-22.4-50-50S624.4,46,652,46z" style="fill: rgb(34, 196, 103);"/>
	</g>
</g></g><path d="M 35.41530227661133 51.290775299072266" style="fill: rgb(226, 0, 122); fill-opacity: 1; stroke: rgb(0, 0, 0); stroke-opacity: 1; stroke-width: 0; paint-order: fill;"/></svg>