<?xml  version="1.0" encoding="utf-8"?>
<svg id="master-artboard" viewBox="0 0 850 638" xmlns="http://www.w3.org/2000/svg" width="850px" height="638px"
     xmlns:xlink="http://www.w3.org/1999/xlink">
    <defs>
        <radialGradient id="radial-gradient" cx="2061.27" cy="-1311.32" r="66.19"
                        gradientTransform="translate(-46.39 757.8) scale(0.36 0.13)" gradientUnits="userSpaceOnUse">
            <stop offset="0" stop-color="#b1b1b1"/>
            <stop offset="0.2" stop-color="#d3d3d3"/>
            <stop offset="0.4" stop-color="#ebebeb"/>
            <stop offset="0.58" stop-color="#fafafa"/>
            <stop offset="0.73" stop-color="#fff"/>
        </radialGradient>
        <radialGradient id="radial-gradient-2" cx="1300.03" cy="-1311.32" r="66.19" xlink:href="#radial-gradient"/>
        <radialGradient id="radial-gradient-3" cx="538.78" cy="-1311.32" r="66.19" xlink:href="#radial-gradient"/>
        <radialGradient id="radial-gradient-4" cx="2061.28" cy="-3620.54" r="66.19" xlink:href="#radial-gradient"/>
        <radialGradient id="radial-gradient-5" cx="1300.03" cy="-3620.54" r="66.19" xlink:href="#radial-gradient"/>
        <radialGradient id="radial-gradient-6" cx="538.78" cy="-3620.54" r="66.19" xlink:href="#radial-gradient"/>
    </defs>
    <title>location-pointer-symbol-vectors</title>
    <g transform="matrix(13.198047637939453, -0.025390092283487323, 0.026552475988864895, 13.800616264343263, 86.6270108612216, -10.320835478451784)">
        <path id="star"
              style="fill: rgb(116, 71, 249); stroke: rgb(255, 255, 255); stroke-opacity: 0; stroke-width: 29;"
              d="M26.285,2.486l5.407,10.956c0.376,0.762,1.103,1.29,1.944,1.412l12.091,1.757&#10;&#9;c2.118,0.308,2.963,2.91,1.431,4.403l-8.749,8.528c-0.608,0.593-0.886,1.448-0.742,2.285l2.065,12.042&#10;&#9;c0.362,2.109-1.852,3.717-3.746,2.722l-10.814-5.685c-0.752-0.395-1.651-0.395-2.403,0l-10.814,5.685&#10;&#9;c-1.894,0.996-4.108-0.613-3.746-2.722l2.065-12.042c0.144-0.837-0.134-1.692-0.742-2.285l-8.749-8.528&#10;&#9;c-1.532-1.494-0.687-4.096,1.431-4.403l12.091-1.757c0.841-0.122,1.568-0.65,1.944-1.412l5.407-10.956&#10;&#9;C22.602,0.567,25.338,0.567,26.285,2.486z"/>
        <g>
        </g>
        <g>
        </g>
        <g>
        </g>
        <g>
        </g>
        <g>
        </g>
        <g>
        </g>
        <g>
        </g>
        <g>
        </g>
        <g>
        </g>
        <g>
        </g>
        <g>
        </g>
        <g>
        </g>
        <g>
        </g>
        <g>
        </g>
        <g>
        </g>
    </g>
</svg>